<svg enable-background="new 0 0 512 512" viewBox="0 0 512 512" xmlns="http://www.w3.org/2000/svg"><path d="m102 256h-25v26h-26v25h26v26h25v25h26v-25.2-25.6-25.6-25.6-26h-26z" fill="#fec738"/><path d="m179 256h-25v25.6 25.6 25.6 25.6 25.6h25.2 25.8v-25.6-25.6-25.6-25.2h-26z" fill="#fec738"/><path d="m333 282v-26-26h-26v26 25.6 25.6 25.6 25.2h26v-25.2-25.8h25v-25z" fill="#fec738"/><path d="m230 307v25.8 25.6 25.6h26 26v-25.6-25.6-25.8h-26z" fill="#fec738"/><path d="m307 154v-26-26h-25.4-25.6-26v26h26v26h26v25h25v25.8 25.2h26v-25.2-25.6-25.2z" fill="#bfc0c0"/><path d="m128 230h26v25.68h-26z" fill="#070000"/><path d="m128 255.68h26v25.68h-26z" fill="#070000"/><path d="m384 230v26 26h26v-26-26z" fill="#fff"/><path d="m128 281.36h26v25.68h-26z" fill="#070000"/><path d="m204.8 281.6h25.6v25.6h-25.6z" fill="#070000"/><path d="m282 179v-25h-26v-26h-25.6-25.4v-26h-25.8-25.6-25.6v26h-26v25.6 25.4h26v25.8 25.2h26v26h25v26h25.8 25.2v25h26 26v-25h25v-26-25.6-25.6-25.8z" fill="#a0a09c"/><g fill="#070000"><path d="m281.6 281.6h25.6v25.6h-25.6z"/><path d="m128 307.04h26v25.68h-26z"/><path d="m204.8 307.2h25.6v25.6h-25.6z"/><path d="m281.6 307.2h25.6v25.6h-25.6z"/><path d="m128 332.72h26v25.68h-26z"/><path d="m204.8 332.8h25.6v25.6h-25.6z"/><path d="m281.6 332.8h25.6v25.6h-25.6z"/><path d="m435 281.6v-25.6-26h-25v26 26h-26v-26-26h26v-25h-26-25.6-25.4v25.4 25.6 26h25v25h26v26h25.6 25.4v-25.8z"/><path d="m435 333h26v25h-26z"/><path d="m204.8 358.4h25.6v25.6h-25.6z"/><path d="m281.6 358.4h25.6v25.6h-25.6z"/></g><path d="m102 358h26v26h-26z" fill="#9f7424"/><path d="m77 384h25v26h-25z" fill="#9f7424"/><path d="m179 384h26v26h-26z" fill="#9f7424"/><path d="m256 384h26v26h-26z" fill="#9f7424"/><path d="m154 410h25v25h-25z" fill="#9f7424"/><path d="m230 410h26v25h-26z" fill="#9f7424"/></svg>